<svg width="80" height="80" viewBox="0 0 80 80" fill="none" xmlns="http://www.w3.org/2000/svg">
<g clip-path="url(#clip0_1918_11233)">
<mask id="mask0_1918_11233" style="mask-type:luminance" maskUnits="userSpaceOnUse" x="0" y="0" width="80" height="80">
<path d="M80 0H0V80H80V0Z" fill="white"/>
</mask>
<g mask="url(#mask0_1918_11233)">
<path d="M49.2239 42.8131C49.2239 42.8131 49.2295 42.8171 49.2311 42.8195C49.2351 42.8227 49.2383 42.8259 49.2431 42.8283C49.2375 42.8227 49.2303 42.8187 49.2239 42.8131ZM49.2239 42.8131C49.2239 42.8131 49.2295 42.8171 49.2311 42.8195C49.2351 42.8227 49.2383 42.8259 49.2431 42.8283C49.2375 42.8227 49.2303 42.8187 49.2239 42.8131ZM72.7367 34.2795C71.7303 26.3347 67.9623 18.7603 61.8719 13.5011C48.3895 1.8595 26.8735 3.2395 15.1023 16.7035C4.19026 29.1843 4.14466 49.7371 15.8703 61.7163C17.3983 63.2763 19.6151 64.2363 20.9351 65.9923C22.1743 67.6403 21.9303 69.7931 21.6199 71.7571C21.4511 72.8259 20.6807 74.6803 22.4839 74.3475C26.4311 73.6179 30.3799 72.7267 34.3695 72.3067C36.1791 72.1163 37.9863 71.9115 39.7967 71.7259C49.8871 70.6907 59.4839 67.5195 66.0191 59.2859C71.5399 52.3299 73.8431 43.0051 72.7375 34.2803L72.7367 34.2795ZM41.1415 27.8587C41.1375 26.5339 42.4975 25.3027 44.0135 25.2587C45.4927 25.2155 46.7039 26.4715 46.7215 28.0651C46.7367 29.4819 45.5719 30.6739 44.1519 30.6907C42.6791 30.7091 41.1455 29.2675 41.1415 27.8587ZM54.3335 49.6579C54.1863 49.8179 53.9695 49.8859 53.7599 49.8955C53.5583 49.9043 53.3279 49.7987 53.1879 49.6579C53.0247 49.4947 52.9751 49.3067 52.9503 49.0859C52.9463 49.0483 52.9415 49.0091 52.9375 48.9707C52.9431 49.0027 52.9471 49.0355 52.9519 49.0675C52.9423 48.9955 52.9327 48.9235 52.9231 48.8515C52.9287 48.8907 52.9335 48.9291 52.9383 48.9683C52.8303 48.2395 52.6351 47.5291 52.3607 46.8467C52.3639 46.8523 52.3663 46.8587 52.3695 46.8643C52.3471 46.8115 52.3255 46.7587 52.3023 46.7043C52.3199 46.7467 52.3383 46.7899 52.3543 46.8315C52.1223 46.2931 51.8423 45.7731 51.5199 45.2819C51.4407 45.1619 51.3599 45.0435 51.2767 44.9267C51.2391 44.8739 51.1999 44.8211 51.1615 44.7683C51.1487 44.7523 51.1255 44.7227 51.1063 44.6971C51.1031 44.6931 51.0999 44.6883 51.0959 44.6843C51.0951 44.6819 51.0935 44.6803 51.0927 44.6787C51.0903 44.6763 51.0895 44.6755 51.0871 44.6731C51.0847 44.6699 51.0831 44.6667 51.0807 44.6643C51.0783 44.6611 51.0767 44.6587 51.0743 44.6571C51.0735 44.6539 51.0711 44.6515 51.0687 44.6499C51.0679 44.6491 51.0663 44.6491 51.0663 44.6475C50.9279 44.4755 50.7887 44.3067 50.6407 44.1419C50.2727 43.7315 49.8727 43.3475 49.4479 42.9955C49.3871 42.9451 49.3255 42.8947 49.2647 42.8467C49.2543 42.8379 49.2439 42.8291 49.2335 42.8211C49.2375 42.8243 49.2407 42.8275 49.2455 42.8299C49.2399 42.8243 49.2327 42.8203 49.2263 42.8147C49.1311 42.7459 49.0375 42.6747 48.9399 42.6051C48.7199 42.4483 48.4943 42.2995 48.2639 42.1595C47.8311 41.8963 47.3815 41.6627 46.9167 41.4595C46.7815 41.4035 46.6455 41.3507 46.5071 41.2995C46.0815 41.1427 45.8375 40.7619 45.9423 40.3043C45.9855 40.1107 46.1463 39.9187 46.3135 39.8203C46.4807 39.7219 46.7511 39.6691 46.9375 39.7379C47.8119 40.0595 48.6535 40.4691 49.4303 40.9827C50.8143 41.8963 52.0087 43.0771 52.9175 44.4651C53.8287 45.8555 54.3911 47.4355 54.5703 49.0867C54.5927 49.2963 54.4695 49.5107 54.3335 49.6587V49.6579ZM54.8943 21.6771C55.9247 20.6243 58.0279 20.5627 59.0263 21.5587C59.9647 22.4939 59.8695 24.3251 58.8279 25.4275C57.8111 26.5019 56.0663 26.4683 54.9287 25.3523C53.9167 24.3587 53.9015 22.6931 54.8943 21.6779V21.6771ZM66.2487 42.8507C65.5983 42.9795 64.9591 42.8011 64.3087 42.9859C63.6943 43.1595 63.1871 43.5043 62.7591 43.9715C62.0679 44.7259 60.9487 43.6011 61.6375 42.8483C62.3327 42.0891 63.2775 41.5411 64.2959 41.3603C64.7999 41.2715 65.2767 41.3235 65.7807 41.3019C66.1295 41.2875 66.1015 41.0051 66.0159 40.7091C65.7895 39.9123 64.9479 39.4235 64.1791 39.2803C63.1175 39.0851 61.9927 39.4595 61.0271 39.8723C60.0799 40.2771 59.4127 39.1259 60.2263 38.5019C61.3143 37.6675 62.5647 36.7235 62.9751 35.3499C63.2879 34.3027 63.0143 32.9331 61.7431 32.7603C60.5607 32.5995 60.3207 34.2243 59.7887 34.9547C58.9519 36.1035 57.5871 36.3035 56.2591 36.3723C55.2367 36.4243 55.2423 34.8371 56.2591 34.7851C56.9471 34.7491 57.8127 34.7379 58.3423 34.2235C58.8431 33.7379 58.9935 32.9635 59.3743 32.3915C60.2471 31.0827 61.9287 30.8203 63.2351 31.6659C64.6503 32.5827 64.9775 34.4075 64.4527 35.9331C64.2303 36.5811 63.8903 37.1459 63.4775 37.6555C63.8231 37.6467 64.1727 37.6707 64.5247 37.7355C65.7007 37.9523 66.8535 38.7115 67.3631 39.8163C67.8847 40.9459 67.6719 42.5707 66.2479 42.8507H66.2487ZM49.2239 42.8131C49.2239 42.8131 49.2295 42.8171 49.2311 42.8195C49.2351 42.8227 49.2383 42.8259 49.2431 42.8283C49.2375 42.8227 49.2303 42.8187 49.2239 42.8131ZM49.2239 42.8131C49.2239 42.8131 49.2295 42.8171 49.2311 42.8195C49.2351 42.8227 49.2383 42.8259 49.2431 42.8283C49.2375 42.8227 49.2303 42.8187 49.2239 42.8131Z" fill="white" fill-opacity="0.8"/>
</g>
</g>
<defs>
<clipPath id="clip0_1918_11233">
<rect width="80" height="80" fill="white"/>
</clipPath>
</defs>
</svg>
