<svg width="100" height="100" viewBox="0 0 100 100" fill="none" xmlns="http://www.w3.org/2000/svg">
<mask id="mask0_2638_8986" style="mask-type:luminance" maskUnits="userSpaceOnUse" x="0" y="0" width="100" height="100">
<path d="M100 0H0V100H100V0Z" fill="white"/>
</mask>
<g mask="url(#mask0_2638_8986)">
<path d="M61.5302 53.5203C61.5302 53.5203 61.5372 53.5253 61.5392 53.5283C61.5442 53.5323 61.5482 53.5363 61.5542 53.5393C61.5472 53.5323 61.5382 53.5273 61.5302 53.5203ZM61.5302 53.5203C61.5302 53.5203 61.5372 53.5253 61.5392 53.5283C61.5442 53.5323 61.5482 53.5363 61.5542 53.5393C61.5472 53.5323 61.5382 53.5273 61.5302 53.5203ZM90.9212 42.8533C89.6632 32.9223 84.9532 23.4543 77.3402 16.8803C60.4872 2.32828 33.5922 4.05328 18.8782 20.8833C5.23822 36.4843 5.18122 62.1753 19.8382 77.1493C21.7482 79.0993 24.5192 80.2993 26.1692 82.4943C27.7182 84.5543 27.4132 87.2453 27.0252 89.7003C26.8142 91.0363 25.8512 93.3543 28.1052 92.9383C33.0392 92.0263 37.9752 90.9123 42.9622 90.3873C45.2242 90.1493 47.4832 89.8933 49.7462 89.6613C62.3592 88.3673 74.3552 84.4033 82.5242 74.1113C89.4252 65.4163 92.3042 53.7603 90.9222 42.8543L90.9212 42.8533ZM51.4272 34.8273C51.4222 33.1713 53.1222 31.6323 55.0172 31.5773C56.8662 31.5233 58.3802 33.0933 58.4022 35.0853C58.4212 36.8563 56.9652 38.3463 55.1902 38.3673C53.3492 38.3903 51.4322 36.5883 51.4272 34.8273ZM67.9172 62.0763C67.7332 62.2763 67.4622 62.3613 67.2002 62.3733C66.9482 62.3843 66.6602 62.2523 66.4852 62.0763C66.2812 61.8723 66.2192 61.6373 66.1882 61.3613C66.1832 61.3143 66.1772 61.2653 66.1722 61.2173C66.1792 61.2573 66.1842 61.2983 66.1902 61.3383C66.1782 61.2483 66.1662 61.1583 66.1542 61.0683C66.1612 61.1173 66.1672 61.1653 66.1732 61.2143C66.0382 60.3033 65.7942 59.4153 65.4512 58.5623C65.4552 58.5693 65.4582 58.5773 65.4622 58.5843C65.4342 58.5183 65.4072 58.4523 65.3782 58.3843C65.4002 58.4373 65.4232 58.4913 65.4432 58.5433C65.1532 57.8703 64.8032 57.2203 64.4002 56.6063C64.3012 56.4563 64.2002 56.3083 64.0962 56.1623C64.0492 56.0963 64.0002 56.0303 63.9522 55.9643C63.9362 55.9443 63.9072 55.9073 63.8832 55.8753C63.8792 55.8703 63.8752 55.8643 63.8702 55.8593C63.8692 55.8563 63.8672 55.8543 63.8662 55.8523C63.8632 55.8493 63.8622 55.8483 63.8592 55.8453C63.8562 55.8413 63.8542 55.8373 63.8512 55.8343C63.8482 55.8303 63.8462 55.8273 63.8432 55.8253C63.8422 55.8213 63.8392 55.8183 63.8362 55.8163C63.8352 55.8153 63.8332 55.8153 63.8332 55.8133C63.6602 55.5983 63.4862 55.3873 63.3012 55.1813C62.8412 54.6683 62.3412 54.1883 61.8102 53.7483C61.7342 53.6853 61.6572 53.6223 61.5812 53.5623C61.5682 53.5513 61.5552 53.5403 61.5422 53.5303C61.5472 53.5343 61.5512 53.5383 61.5572 53.5413C61.5502 53.5343 61.5412 53.5293 61.5332 53.5223C61.4142 53.4363 61.2972 53.3473 61.1752 53.2603C60.9002 53.0643 60.6182 52.8783 60.3302 52.7033C59.7892 52.3743 59.2272 52.0823 58.6462 51.8283C58.4772 51.7583 58.3072 51.6923 58.1342 51.6283C57.6022 51.4323 57.2972 50.9563 57.4282 50.3843C57.4822 50.1423 57.6832 49.9023 57.8922 49.7793C58.1012 49.6563 58.4392 49.5903 58.6722 49.6763C59.7652 50.0783 60.8172 50.5903 61.7882 51.2323C63.5182 52.3743 65.0112 53.8503 66.1472 55.5853C67.2862 57.3233 67.9892 59.2983 68.2132 61.3623C68.2412 61.6243 68.0872 61.8923 67.9172 62.0773V62.0763ZM68.6182 27.1003C69.9062 25.7843 72.5352 25.7073 73.7832 26.9523C74.9562 28.1213 74.8372 30.4103 73.5352 31.7883C72.2642 33.1313 70.0832 33.0893 68.6612 31.6943C67.3962 30.4523 67.3772 28.3703 68.6182 27.1013V27.1003ZM82.8112 53.5673C81.9982 53.7283 81.1992 53.5053 80.3862 53.7363C79.6182 53.9533 78.9842 54.3843 78.4492 54.9683C77.5852 55.9113 76.1862 54.5053 77.0472 53.5643C77.9162 52.6153 79.0972 51.9303 80.3702 51.7043C81.0002 51.5933 81.5962 51.6583 82.2262 51.6313C82.6622 51.6133 82.6272 51.2603 82.5202 50.8903C82.2372 49.8943 81.1852 49.2833 80.2242 49.1043C78.8972 48.8603 77.4912 49.3283 76.2842 49.8443C75.1002 50.3503 74.2662 48.9113 75.2832 48.1313C76.6432 47.0883 78.2062 45.9083 78.7192 44.1913C79.1102 42.8823 78.7682 41.1703 77.1792 40.9543C75.7012 40.7533 75.4012 42.7843 74.7362 43.6973C73.6902 45.1333 71.9842 45.3833 70.3242 45.4693C69.0462 45.5343 69.0532 43.5503 70.3242 43.4853C71.1842 43.4403 72.2662 43.4263 72.9282 42.7833C73.5542 42.1763 73.7422 41.2083 74.2182 40.4933C75.3092 38.8573 77.4112 38.5293 79.0442 39.5863C80.8132 40.7323 81.2222 43.0133 80.5662 44.9203C80.2882 45.7303 79.8632 46.4363 79.3472 47.0733C79.7792 47.0623 80.2162 47.0923 80.6562 47.1733C82.1262 47.4443 83.5672 48.3933 84.2042 49.7743C84.8562 51.1863 84.5902 53.2173 82.8102 53.5673H82.8112ZM61.5302 53.5203C61.5302 53.5203 61.5372 53.5253 61.5392 53.5283C61.5442 53.5323 61.5482 53.5363 61.5542 53.5393C61.5472 53.5323 61.5382 53.5273 61.5302 53.5203ZM61.5302 53.5203C61.5302 53.5203 61.5372 53.5253 61.5392 53.5283C61.5442 53.5323 61.5482 53.5363 61.5542 53.5393C61.5472 53.5323 61.5382 53.5273 61.5302 53.5203Z" fill="white"/>
</g>
</svg>
