<svg width="100" height="100" viewBox="0 0 100 100" fill="none" xmlns="http://www.w3.org/2000/svg">
<g clip-path="url(#clip0_2638_8992)">
<mask id="mask0_2638_8992" style="mask-type:luminance" maskUnits="userSpaceOnUse" x="0" y="0" width="100" height="100">
<path d="M100 0H0V100H100V0Z" fill="white"/>
</mask>
<g mask="url(#mask0_2638_8992)">
<path d="M90.9209 42.8526C89.6619 32.9216 84.9529 23.4536 77.3389 16.8786C60.4859 2.32564 33.5909 4.05164 18.8759 20.8826C5.2359 36.4826 5.1799 62.1746 19.8359 77.1476C21.7449 79.0986 24.5169 80.2976 26.1679 82.4926C27.7169 84.5526 27.4119 87.2436 27.0239 89.6996C26.8119 91.0346 25.8489 93.3526 28.1029 92.9356C33.0369 92.0246 37.9729 90.9106 42.9609 90.3866C45.2219 90.1486 47.4819 89.8926 49.7439 89.6606C62.3559 88.3656 74.3519 84.4016 82.5219 74.1096C89.4239 65.4146 92.3019 53.7596 90.9209 42.8526ZM55.6889 31.5756C57.5369 31.5216 59.0509 33.0916 59.0729 35.0836C59.0919 36.8546 57.6359 38.3436 55.8619 38.3666C54.0199 38.3896 52.1039 36.5866 52.0979 34.8256C52.0929 33.1696 53.7929 31.6316 55.6889 31.5756ZM59.0799 64.3726C58.8979 64.5716 58.6259 64.6576 58.3639 64.6696C58.1119 64.6806 57.8239 64.5486 57.6489 64.3726C57.5499 64.2816 57.4799 64.1726 57.4389 64.0476C57.3779 63.9296 57.3489 63.8036 57.3519 63.6686C57.1639 62.4226 56.8159 61.2066 56.3349 60.0426C56.2169 59.7686 56.0919 59.4986 55.9589 59.2316C55.4479 58.2026 54.8359 57.2246 54.1449 56.3076C54.1519 56.3146 54.1569 56.3226 54.1629 56.3296C54.1449 56.3066 54.1279 56.2836 54.1089 56.2606C53.8839 55.9716 53.6509 55.6876 53.4089 55.4106C52.5039 54.3716 51.4959 53.4246 50.4109 52.5756C50.1059 52.3436 49.7949 52.1176 49.4779 51.9006C48.2589 51.0656 46.9599 50.3506 45.6029 49.7656C45.2279 49.6096 44.8469 49.4636 44.4639 49.3276C44.2039 49.2356 44.0069 49.0936 43.8589 48.8626C43.7109 48.6326 43.6979 48.3416 43.7569 48.0826C43.8119 47.8416 44.0119 47.6006 44.2219 47.4776C44.4329 47.3536 44.7649 47.2916 45.0019 47.3756C45.1749 47.4366 45.3469 47.4996 45.5179 47.5646C46.9489 48.1096 48.3319 48.7796 49.6329 49.5866C50.9189 50.3846 52.1349 51.3096 53.2459 52.3376C54.3389 53.3486 55.3209 54.4756 56.1869 55.6866C57.0379 56.8756 57.7289 58.1536 58.2869 59.5026C58.8399 60.8386 59.1859 62.2256 59.3769 63.6576C59.4109 63.9156 59.2479 64.1906 59.0799 64.3726ZM69.2889 27.0996C70.5769 25.7826 73.2069 25.7066 74.4539 26.9496C75.6269 28.1186 75.5089 30.4086 74.2049 31.7856C72.9339 33.1296 70.7539 33.0866 69.3319 31.6906C68.0679 30.4506 68.0479 28.3676 69.2889 27.0996ZM78.9149 48.9266C78.0529 50.8156 76.5149 52.4086 74.8669 53.6326C74.3519 54.0156 73.5449 53.7126 73.2489 53.2076C72.9019 52.6136 73.1619 51.9696 73.6739 51.5896C74.7569 50.7856 75.6869 49.7536 76.3929 48.6066C76.5649 48.3276 77.0839 47.5636 76.9459 47.2946C76.7169 46.8466 75.7209 46.9686 75.2909 46.9816C74.2369 47.0126 73.7729 45.6806 74.4549 44.9626C74.7919 44.6086 75.1919 44.2336 75.3829 43.7716C75.5029 43.4836 75.5099 43.2876 75.4229 43.0826C75.4229 43.1046 75.2939 42.9936 75.3739 43.0266C75.3879 43.0316 75.4069 43.0396 75.4159 43.0406C75.4079 43.0366 75.3879 43.0286 75.3499 43.0146C75.1639 42.9456 75.0929 42.9646 74.8739 42.9726C74.3839 42.9916 73.9019 43.0996 73.4129 43.1196C71.2869 43.2096 69.2779 41.6236 68.8019 39.5666C68.6569 38.9416 68.9899 38.2866 69.6279 38.1116C70.2249 37.9476 70.9379 38.3156 71.0819 38.9376C71.2649 39.7276 71.8379 40.4026 72.6049 40.6476C73.5359 40.9446 74.6499 40.4946 75.7019 40.6716C77.0149 40.8916 77.8629 42.1086 77.8379 43.4016C77.8279 43.9386 77.6849 44.4246 77.4589 44.8746C77.8649 45.0206 78.2409 45.2416 78.5669 45.5696C79.5019 46.5136 79.4319 47.7946 78.9149 48.9266ZM57.3519 63.6586V63.6686C57.3629 63.7426 57.3739 63.8166 57.3839 63.8916C57.3739 63.8136 57.3619 63.7356 57.3519 63.6586ZM56.2869 59.9266C56.3029 59.9656 56.3189 60.0036 56.3349 60.0426C56.3529 60.0846 56.3709 60.1266 56.3889 60.1686C56.3549 60.0876 56.3209 60.0076 56.2869 59.9266ZM45.4579 49.7036C45.5059 49.7236 45.5549 49.7446 45.6029 49.7656C45.6349 49.7786 45.6679 49.7916 45.6999 49.8056C45.6189 49.7716 45.5389 49.7376 45.4579 49.7036Z" fill="white"/>
</g>
</g>
<defs>
<clipPath id="clip0_2638_8992">
<rect width="100" height="100" fill="white"/>
</clipPath>
</defs>
</svg>
