<svg width="207" height="100" viewBox="0 0 207 100" fill="none" xmlns="http://www.w3.org/2000/svg">
<g clip-path="url(#clip0_1220_7804)">
<mask id="mask0_1220_7804" style="mask-type:luminance" maskUnits="userSpaceOnUse" x="0" y="0" width="100" height="100">
<path d="M100 0H0V100H100V0Z" fill="white"/>
</mask>
<g mask="url(#mask0_1220_7804)">
<path d="M28.4599 81.0703C25.5399 81.0703 21.3999 82.7703 21.3999 87.4503C21.3999 92.1303 25.1999 94.4403 27.7099 94.4403C30.2199 94.4403 34.9699 92.1303 34.9699 88.0603C34.9699 83.9903 31.8499 81.0703 28.4499 81.0703H28.4599Z" fill="white"/>
<path d="M39.64 82.7506C39.64 82.7506 48.52 72.8606 33.5 67.2406C18.47 61.6206 11.49 44.4906 15.41 30.5506C19.33 16.6106 32.81 2.21056 56.12 6.26056C79.42 10.3106 88.69 34.4006 84.82 49.0506C80.95 63.7006 72.61 69.6406 60.99 74.3706C51.84 78.9506 39.65 82.7506 39.65 82.7506H39.64Z" fill="white"/>
</g>
</g>
<g clip-path="url(#clip1_1220_7804)">
<mask id="mask1_1220_7804" style="mask-type:luminance" maskUnits="userSpaceOnUse" x="107" y="0" width="100" height="100">
<path d="M207 0H107V100H207V0Z" fill="white"/>
</mask>
<g mask="url(#mask1_1220_7804)">
<path d="M116.2 41.1707H120.12C120.99 41.1707 121.69 40.4707 121.69 39.6007V32.3407C121.69 28.4407 124.85 25.2807 128.75 25.2807C132.65 25.2807 135.81 28.4407 135.81 32.3407V39.6007C135.81 40.4707 136.51 41.1707 137.38 41.1707H141.3C142.17 41.1707 142.87 40.4707 142.87 39.6007V32.3407C142.87 24.5407 136.55 18.2207 128.75 18.2207C120.95 18.2207 114.63 24.5407 114.63 32.3407V39.6007C114.63 40.4707 115.33 41.1707 116.2 41.1707Z" fill="white"/>
<path d="M123.46 57.2609C123.46 58.1309 124.16 58.8309 125.03 58.8309H128.95C129.82 58.8309 130.52 58.1309 130.52 57.2609V51.7709H143.07C143.94 51.7709 144.64 51.0709 144.64 50.2009V46.2809C144.64 45.4109 143.94 44.7109 143.07 44.7109H114.44C113.57 44.7109 112.87 45.4109 112.87 46.2809V50.2009C112.87 51.0709 113.57 51.7709 114.44 51.7709H123.46V57.2609Z" fill="white"/>
<path d="M153.66 18.2207H149.74C148.873 18.2207 148.17 18.9236 148.17 19.7907V57.2507C148.17 58.1178 148.873 58.8207 149.74 58.8207H153.66C154.527 58.8207 155.23 58.1178 155.23 57.2507V19.7907C155.23 18.9236 154.527 18.2207 153.66 18.2207Z" fill="white"/>
<path d="M153.67 60.5898H119.73C118.86 60.5898 118.16 61.2898 118.16 62.1598V80.2098C118.16 81.0798 118.86 81.7798 119.73 81.7798H153.66C154.53 81.7798 155.23 81.0798 155.23 80.2098V62.1598C155.23 61.2898 154.53 60.5898 153.66 60.5898H153.67ZM148.17 74.7098H125.22V67.6498H148.17V74.7098Z" fill="white"/>
<path d="M199.56 72.9505H192.3V57.0605H185.24V72.9505H176.41V57.0605H169.35V72.9505H162.09C161.22 72.9505 160.52 73.6505 160.52 74.5205V78.4405C160.52 79.3105 161.22 80.0105 162.09 80.0105H199.55C200.42 80.0105 201.12 79.3105 201.12 78.4405V74.5205C201.12 73.6505 200.42 72.9505 199.55 72.9505H199.56Z" fill="white"/>
<path d="M163.87 57.0603H197.8C198.67 57.0603 199.37 56.3603 199.37 55.4903V51.5703C199.37 50.7003 198.67 50.0003 197.8 50.0003H192.31V30.3903C192.31 29.5203 191.61 28.8203 190.74 28.8203H186.82C185.95 28.8203 185.25 29.5203 185.25 30.3903V50.0003H176.42V30.3903C176.42 29.5203 175.72 28.8203 174.85 28.8203H170.93C170.06 28.8203 169.36 29.5203 169.36 30.3903V50.0003H163.87C163 50.0003 162.3 50.7003 162.3 51.5703V55.4903C162.3 56.3603 163 57.0603 163.87 57.0603Z" fill="white"/>
<path d="M197.8 18.2207H163.87C163.003 18.2207 162.3 18.9236 162.3 19.7907V23.7107C162.3 24.5778 163.003 25.2807 163.87 25.2807H197.8C198.667 25.2807 199.37 24.5778 199.37 23.7107V19.7907C199.37 18.9236 198.667 18.2207 197.8 18.2207Z" fill="white"/>
</g>
</g>
<defs>
<clipPath id="clip0_1220_7804">
<rect width="100" height="100" fill="white"/>
</clipPath>
<clipPath id="clip1_1220_7804">
<rect width="100" height="100" fill="white" transform="translate(107)"/>
</clipPath>
</defs>
</svg>
